<svg width="40" height="40" viewBox="0 0 40 40" fill="none" xmlns="http://www.w3.org/2000/svg">
<circle cx="20" cy="20" r="20" fill="url(#paint0_linear_1060_24787)"/>
<g filter="url(#filter0_ddi_1060_24787)">
<path d="M25.5401 16.8514C25.4745 16.8514 25.4187 16.8382 25.3728 16.812C25.3269 16.7858 25.2908 16.74 25.2645 16.6744L24.6938 15.3376L23.2572 14.7085C23.1916 14.6823 23.1457 14.6462 23.1194 14.6003C23.0932 14.5545 23.0801 14.4988 23.0801 14.4332C23.0801 14.3677 23.0932 14.312 23.1194 14.2661C23.1457 14.2203 23.1916 14.1842 23.2572 14.158L24.6938 13.5486L25.2645 12.2707C25.2908 12.2052 25.3269 12.1593 25.3728 12.1331C25.4187 12.1069 25.4745 12.0938 25.5401 12.0938C25.6057 12.0938 25.6614 12.1069 25.7073 12.1331C25.7533 12.1593 25.7893 12.2052 25.8156 12.2707L26.3863 13.5486L27.8229 14.158C27.8885 14.1842 27.9345 14.2203 27.9607 14.2661C27.9869 14.312 28 14.3677 28 14.4332C28 14.4988 27.9869 14.5545 27.9607 14.6003C27.9345 14.6462 27.8885 14.6823 27.8229 14.7085L26.3863 15.3376L25.8156 16.6744C25.7893 16.74 25.7533 16.7858 25.7073 16.812C25.6614 16.8382 25.6057 16.8514 25.5401 16.8514ZM25.5401 28.5684C25.4876 28.5684 25.4351 28.5553 25.3826 28.5291C25.3301 28.5029 25.2908 28.457 25.2645 28.3915L24.6938 27.1136L23.2769 26.5042C23.2113 26.478 23.1653 26.4419 23.1391 26.3961C23.1129 26.3502 23.0997 26.2945 23.0997 26.229C23.0997 26.1634 23.1129 26.1077 23.1391 26.0618C23.1653 26.016 23.2113 25.9799 23.2769 25.9537L24.6938 25.3443L25.2645 23.9878C25.2908 23.9222 25.3269 23.8764 25.3728 23.8501C25.4187 23.8239 25.4745 23.8108 25.5401 23.8108C25.6057 23.8108 25.6614 23.8239 25.7073 23.8501C25.7533 23.8764 25.7893 23.9222 25.8156 23.9878L26.3863 25.3443L27.8033 25.9537C27.8689 25.9799 27.9148 26.016 27.941 26.0618C27.9672 26.1077 27.9804 26.1634 27.9804 26.229C27.9804 26.2945 27.9672 26.3502 27.941 26.3961C27.9148 26.4419 27.8689 26.478 27.8033 26.5042L26.3863 27.1136L25.8156 28.3915C25.7893 28.457 25.75 28.5029 25.6975 28.5291C25.645 28.5553 25.5925 28.5684 25.5401 28.5684ZM16.9006 25.1673C16.7956 25.1673 16.6939 25.1378 16.5955 25.0789C16.4971 25.0199 16.4217 24.938 16.3692 24.8331L15.09 22.1004L12.3348 20.8619C12.2298 20.8095 12.1478 20.7341 12.0888 20.6358C12.0298 20.5375 12.0002 20.4359 12.0002 20.3311C12.0002 20.2262 12.0298 20.1247 12.0888 20.0264C12.1478 19.9281 12.2298 19.8527 12.3348 19.8003L15.09 18.5617L16.3692 15.8487C16.4217 15.7308 16.4971 15.6423 16.5955 15.5833C16.6939 15.5243 16.7956 15.4948 16.9006 15.4948C17.0055 15.4948 17.1072 15.5243 17.2056 15.5833C17.304 15.6423 17.3794 15.7242 17.4319 15.8291L18.7308 18.5617L21.4663 19.8003C21.5844 19.8527 21.6729 19.9281 21.732 20.0264C21.791 20.1247 21.8205 20.2262 21.8205 20.3311C21.8205 20.4359 21.791 20.5375 21.732 20.6358C21.6729 20.7341 21.5844 20.8095 21.4663 20.8619L18.7308 22.1004L17.4319 24.8331C17.3794 24.9511 17.304 25.0363 17.2056 25.0887C17.1072 25.1411 17.0055 25.1673 16.9006 25.1673Z" fill="url(#paint1_linear_1060_24787)" shape-rendering="crispEdges"/>
</g>
<defs>
<filter id="filter0_ddi_1060_24787" x="5.63348" y="6.53198" width="28.0015" height="29.576" filterUnits="userSpaceOnUse" color-interpolation-filters="sRGB">
<feFlood flood-opacity="0" result="BackgroundImageFix"/>
<feColorMatrix in="SourceAlpha" type="matrix" values="0 0 0 0 0 0 0 0 0 0 0 0 0 0 0 0 0 0 127 0" result="hardAlpha"/>
<feOffset dx="-1.31726" dy="2.48816"/>
<feGaussianBlur stdDeviation="2.52475"/>
<feComposite in2="hardAlpha" operator="out"/>
<feColorMatrix type="matrix" values="0 0 0 0 0.0506089 0 0 0 0 0.0159861 0 0 0 0 0.191833 0 0 0 0.25 0"/>
<feBlend mode="normal" in2="BackgroundImageFix" result="effect1_dropShadow_1060_24787"/>
<feColorMatrix in="SourceAlpha" type="matrix" values="0 0 0 0 0 0 0 0 0 0 0 0 0 0 0 0 0 0 127 0" result="hardAlpha"/>
<feOffset dx="1.24408" dy="-1.1709"/>
<feGaussianBlur stdDeviation="2.19544"/>
<feComposite in2="hardAlpha" operator="out"/>
<feColorMatrix type="matrix" values="0 0 0 0 1 0 0 0 0 1 0 0 0 0 1 0 0 0 0.35 0"/>
<feBlend mode="normal" in2="effect1_dropShadow_1060_24787" result="effect2_dropShadow_1060_24787"/>
<feBlend mode="normal" in="SourceGraphic" in2="effect2_dropShadow_1060_24787" result="shape"/>
<feColorMatrix in="SourceAlpha" type="matrix" values="0 0 0 0 0 0 0 0 0 0 0 0 0 0 0 0 0 0 127 0" result="hardAlpha"/>
<feOffset dy="3.07361"/>
<feGaussianBlur stdDeviation="1.9393"/>
<feComposite in2="hardAlpha" operator="arithmetic" k2="-1" k3="1"/>
<feColorMatrix type="matrix" values="0 0 0 0 1 0 0 0 0 1 0 0 0 0 1 0 0 0 1 0"/>
<feBlend mode="normal" in2="shape" result="effect3_innerShadow_1060_24787"/>
</filter>
<linearGradient id="paint0_linear_1060_24787" x1="23.8824" y1="33.1765" x2="32.3889" y2="2.42592" gradientUnits="userSpaceOnUse">
<stop stop-color="#4A25E1"/>
<stop offset="0.927091" stop-color="#7B5AFF"/>
</linearGradient>
<linearGradient id="paint1_linear_1060_24787" x1="22.797" y1="19.8484" x2="20.3183" y2="31.371" gradientUnits="userSpaceOnUse">
<stop stop-color="white" stop-opacity="0.96"/>
<stop offset="1" stop-color="white" stop-opacity="0.23"/>
</linearGradient>
</defs>
</svg>
