<svg width="20" height="20" viewBox="0 0 20 20" fill="none" xmlns="http://www.w3.org/2000/svg">
<path d="M2.38341 3.22834H13.3632C14.0185 3.22834 14.6155 3.4668 15.0464 3.8504C15.4782 4.23401 15.7466 4.76357 15.7466 5.34574V17.8826C15.7466 18.4656 15.4782 18.9951 15.0464 19.3779C14.6146 19.7615 14.0185 20 13.3632 20H2.38341C1.72718 20 1.13112 19.7615 0.700217 19.3779C0.268421 18.9943 0 18.4648 0 17.8826V5.34574C0 4.76355 0.268421 4.23321 0.700217 3.8504C1.13201 3.4668 1.7281 3.22834 2.38341 3.22834ZM5.50841 1.49613C5.3549 1.71545 5.02994 1.78243 4.78307 1.64607C4.53621 1.5097 4.46081 1.221 4.6143 1.00169C4.82796 0.697034 5.1278 0.443423 5.48327 0.267965C5.82709 0.0972961 6.22118 0 6.63682 0H17.6166C18.2728 0 18.8689 0.238463 19.2998 0.622066C19.7316 1.00567 20 1.53523 20 2.1174V14.6543C20 15.1599 19.7962 15.628 19.456 15.9949C19.1113 16.3673 18.6274 16.6345 18.0762 16.731C17.7907 16.7804 17.5134 16.6146 17.4586 16.3609C17.4029 16.1065 17.5888 15.8609 17.8751 15.8115C18.183 15.7572 18.4532 15.6089 18.6454 15.4007C18.833 15.1982 18.9461 14.9374 18.9461 14.6535V2.1166C18.9461 1.79282 18.7962 1.49774 18.5556 1.284C18.315 1.06947 17.9829 0.93709 17.6184 0.93709H6.63863C6.40434 0.93709 6.18528 0.990524 5.99587 1.08383C5.79837 1.18193 5.63051 1.32389 5.51021 1.49534L5.50841 1.49613ZM13.3643 4.16618H2.38456C2.0201 4.16618 1.68795 4.29937 1.44736 4.5131C1.20587 4.72763 1.05686 5.02191 1.05686 5.3457V17.8826C1.05686 18.2063 1.20678 18.5014 1.44736 18.7152C1.68795 18.9297 2.0201 19.0621 2.38456 19.0621H13.3643C13.7288 19.0621 14.0609 18.9289 14.3015 18.7152C14.5421 18.5014 14.692 18.2063 14.692 17.8826V5.3457C14.692 5.02191 14.5421 4.72684 14.3015 4.5131C14.06 4.29936 13.7288 4.16618 13.3643 4.16618Z" fill="black"/>
</svg>
