<svg width="9" height="10" viewBox="0 0 9 10" fill="none" xmlns="http://www.w3.org/2000/svg">
<path fill-rule="evenodd" clip-rule="evenodd" d="M2.00018 2.00015V1.5C2.00018 0.671722 2.67143 0 3.50017 0H5.49985C6.32859 0 6.99985 0.671722 6.99985 1.5V2.00015H8.49984C8.77594 2.00015 9 2.22422 9 2.50031C9 2.77641 8.77594 3 8.49984 3H8.00015V8.50031C8.00015 9.32858 7.32843 10.0003 6.50015 10.0003H2.49985C1.67157 10.0003 0.999849 9.32858 0.999849 8.50031V3H0.500159C0.224064 3 0 2.77641 0 2.50031C0 2.22422 0.224064 2.00015 0.500159 2.00015H2.00018ZM6.00001 1.5V2.00015H3.00002V1.5C3.00002 1.2239 3.22408 1.00031 3.50017 1.00031H5.49985C5.77594 1.00031 6.00001 1.2239 6.00001 1.5ZM2.00018 2.99999V8.5003C2.00018 8.77639 2.22377 8.99999 2.49987 8.99999H6.50018C6.77627 8.99999 6.99987 8.77639 6.99987 8.5003V2.99999H2.00018Z" fill="#666F8D"/>
</svg>
