<svg width="21" height="20" viewBox="0 0 21 20" fill="none" xmlns="http://www.w3.org/2000/svg">
<path d="M20.6638 6.95855V4.48099L20.6612 3.86284C20.6612 3.63923 20.6433 3.37986 20.6041 3.14333C20.5239 2.66035 20.3438 2.19923 20.0906 1.79972C19.586 0.995724 18.7649 0.446165 17.8859 0.33982C17.7763 0.3269 17.6666 0.324913 17.5569 0.316962H17.2761L15.6099 0.302056L11.1684 0.233483C9.68763 0.200687 8.20857 0.156961 6.72694 0.101308L4.5062 0.00490765C4.42418 -0.00304278 4.30293 -6.13034e-05 4.1799 0.00490765C4.05866 0.00490765 3.94009 0.0198145 3.81974 0.0357146C3.57992 0.0685111 3.3428 0.135096 3.11188 0.226525C2.65098 0.407398 2.22395 0.699582 1.86824 1.08418C1.53302 1.43499 1.22725 1.92097 1.05163 2.46359C0.960696 2.73291 0.908097 3.01615 0.884918 3.29043C0.86174 3.56273 0.880461 3.85492 0.909882 4.01292C1.02132 4.75629 1.28431 5.30287 1.85487 5.27705C2.32291 5.25717 2.53062 4.71754 2.62157 4.00795C2.64474 3.80422 2.66258 3.69988 2.68575 3.57268C2.71072 3.44845 2.74014 3.32323 2.77936 3.20398C2.85692 2.96249 2.97371 2.73591 3.11278 2.56299C3.4257 2.16844 3.87947 1.92993 4.35019 1.917L6.5005 1.9021L10.8457 1.85837L15.1908 1.80967L17.3634 1.79476C17.5685 1.79476 17.6603 1.79476 17.7904 1.81464C17.9135 1.83253 18.0365 1.86334 18.1533 1.91402C18.3886 2.00843 18.6053 2.15551 18.7853 2.3493C18.977 2.55004 19.1277 2.7975 19.2213 3.06682C19.2668 3.20198 19.306 3.3411 19.3238 3.48619C19.3354 3.55775 19.3443 3.63129 19.3443 3.70483L19.3515 3.81415V3.97217V6.50338V11.5688V14.103V15.3701V16.0031V16.3032C19.3443 16.3768 19.3515 16.4503 19.3381 16.5219C19.2739 17.0973 18.9753 17.6389 18.5349 17.9589C18.3155 18.1169 18.0668 18.2233 17.8092 18.267C17.5988 18.3077 17.1637 18.2898 16.7937 18.2948C15.7962 18.2948 14.3171 18.0454 14.2538 18.9815C14.1852 19.9942 15.7328 19.709 16.6796 19.7219L17.2342 19.7269H17.5123L17.8368 19.717C18.2728 19.6762 18.7016 19.5261 19.0849 19.2847C19.8516 18.8037 20.4204 17.949 20.6023 16.982L20.6522 16.6183L20.6682 16.2545V15.6364L20.6709 14.3971V11.9196L20.6638 6.96637L20.6638 6.95855Z" fill="#667085"/>
<path d="M0.967935 19.6197C1.59822 20.3471 1.68917 19.8463 1.86301 19.6704C4.02847 17.4621 5.86858 14.8851 8.38088 13.0655C8.40851 13.0456 8.43526 13.0248 8.46557 13.0019C8.47448 13.1729 8.45844 13.4799 8.45219 13.7343L8.41564 14.5512C8.35591 15.6375 8.26052 16.7267 8.10539 17.8128C8.03229 18.3187 7.94581 19.0541 9.08694 19.0392C10.023 19.0263 9.91782 18.3296 9.92229 17.8615C9.9312 16.7982 9.90446 15.7318 9.87415 14.6684L9.82601 13.0276C9.785 12.2723 9.49079 11.5369 9.01563 11.0052C8.52531 10.4427 7.83082 10.0999 7.12565 10.077L5.59851 10.0721L2.60398 10.077C2.27501 10.077 1.78737 9.82758 1.76596 10.7637C1.74278 11.7764 2.2545 11.4942 2.56474 11.5041C3.54182 11.5419 4.51625 11.5449 5.49241 11.5419L6.95804 11.5339C7.03293 11.5339 7.10425 11.5419 7.17468 11.5489C7.15685 11.5687 7.13813 11.5896 7.12208 11.6095C6.09507 12.7265 5.17325 13.9578 4.1579 15.0899C3.09702 16.2725 2.03523 17.4511 0.978731 18.6387C0.804888 18.8345 0.387675 18.9467 0.969816 19.6206L0.967935 19.6197Z" fill="#667085"/>
</svg>
