<svg width="25" height="26" viewBox="0 0 25 26" fill="none" xmlns="http://www.w3.org/2000/svg">
<path d="M21.875 0.5H3.125C2.29608 0.501295 1.50153 0.831046 0.915676 1.4169C0.329821 2.00276 0.000511048 2.79687 0 3.625V22.375C0.000511048 23.2031 0.329821 23.9972 0.915676 24.5831C1.50153 25.169 2.29608 25.4987 3.125 25.5H21.875C22.7039 25.4987 23.4985 25.169 24.0843 24.5831C24.6702 23.9972 24.9995 23.2031 25 22.375V3.625C24.9995 2.79687 24.6702 2.00276 24.0843 1.4169C23.4985 0.831046 22.7039 0.501295 21.875 0.5ZM22.9167 22.375C22.9164 22.651 22.8065 22.9156 22.6113 23.1109C22.416 23.3061 22.1513 23.4161 21.875 23.4167H3.125C2.84874 23.4161 2.58396 23.3061 2.38871 23.1109C2.19345 22.9156 2.08364 22.651 2.08333 22.375V3.625C2.08364 3.349 2.19345 3.08437 2.38871 2.88912C2.58396 2.69386 2.84874 2.5839 3.125 2.58333H21.875C22.1513 2.5839 22.416 2.69386 22.6113 2.88912C22.8065 3.08437 22.9164 3.349 22.9167 3.625V22.375ZM16.8417 10.1303L18.3919 8.58105L16.919 7.10803L15.3686 8.65833C14.8146 8.28912 14.1942 8.03074 13.5417 7.8975V5.70833H11.4583V7.8975C10.8058 8.03074 10.1854 8.28912 9.63135 8.65833L8.08104 7.10802L6.60708 8.58105L8.15739 10.1314C7.78888 10.686 7.53055 11.3063 7.39646 11.9583H5.20833V14.0417H7.39646C7.53016 14.6939 7.78853 15.3142 8.15739 15.8687L6.60708 17.42L8.08 18.8929L9.63033 17.3417C10.185 17.7106 10.8057 17.9693 11.4583 18.1035V20.2917H13.5417V18.1035C14.1939 17.9694 14.8142 17.711 15.3686 17.3426L16.919 18.8929L18.3919 17.42L16.8417 15.8697C17.211 15.315 17.4697 14.6943 17.6035 14.0417H19.7917V11.9583H17.6035C17.4697 11.3057 17.211 10.685 16.8417 10.1303ZM12.5 16.125C11.8812 16.1256 11.2762 15.9428 10.7614 15.5998C10.2466 15.2568 9.84523 14.7689 9.60803 14.1979C9.37083 13.627 9.30846 12.9985 9.42882 12.3922C9.54918 11.7858 9.84685 11.2287 10.2842 10.7913C10.7215 10.354 11.2789 10.0561 11.8857 9.93526C12.4926 9.81444 13.1216 9.87615 13.6934 10.1126C14.2651 10.349 14.7538 10.7496 15.0976 11.2635C15.4415 11.7775 15.625 12.3818 15.625 13C15.6252 13.8283 15.2961 14.6229 14.7101 15.2089C14.1241 15.7949 13.3291 16.1244 12.5 16.125Z" fill="white"/>
</svg>
