<svg width="48" height="41" viewBox="0 0 48 41" fill="none" xmlns="http://www.w3.org/2000/svg">
<path fill-rule="evenodd" clip-rule="evenodd" d="M19.9859 0.710693C9.00797 0.710693 0 9.72482 0 20.7104C0 31.6959 9.00797 40.7102 19.9859 40.7102H42.6056C44.4317 40.7359 46.1303 39.7757 47.0509 38.1973C47.9715 36.6188 47.9715 34.6666 47.0509 33.0881C46.1303 31.5097 44.4318 30.5494 42.6056 30.5752H37.3474C39.0159 27.6584 39.9718 24.289 39.9718 20.7104C39.9718 9.72488 30.9638 0.710693 19.9859 0.710693ZM19.9859 10.8458C25.4902 10.8458 29.8438 15.2022 29.8438 20.7104C29.8438 26.2185 25.4903 30.5752 19.9859 30.5752C14.4816 30.5752 10.1281 26.2185 10.1281 20.7104C10.1281 15.2022 14.4816 10.8458 19.9859 10.8458Z" fill="url(#paint0_linear_294_9294)"/>
<path fill-rule="evenodd" clip-rule="evenodd" d="M19.9859 0.710693C9.00796 0.710693 0 9.72482 0 20.7104C0 31.6959 9.00796 40.7102 19.9859 40.7102H42.6056C44.4317 40.7359 46.1303 39.7757 47.0509 38.1973C47.9715 36.6188 47.9715 34.6666 47.0509 33.0881C46.1303 31.5097 44.4318 30.5494 42.6056 30.5752H37.3472H19.9858C14.4815 30.5752 10.128 26.2185 10.128 20.7104C10.128 15.2023 14.4815 10.8458 19.9858 10.8458L19.9859 0.710693Z" fill="url(#paint1_linear_294_9294)"/>
<defs>
<linearGradient id="paint0_linear_294_9294" x1="23.8707" y1="13.2533" x2="23.8707" y2="50.8403" gradientUnits="userSpaceOnUse">
<stop stop-color="#1F5BFF"/>
<stop offset="1" stop-color="#0031B5"/>
</linearGradient>
<linearGradient id="paint1_linear_294_9294" x1="23.8707" y1="14.5482" x2="23.8707" y2="63.3741" gradientUnits="userSpaceOnUse">
<stop stop-color="#1F5BFF"/>
<stop offset="1" stop-color="#6C94FF"/>
</linearGradient>
</defs>
</svg>
