<svg width="18" height="19" viewBox="0 0 18 19" fill="none" xmlns="http://www.w3.org/2000/svg">
<path d="M0.000337601 17.8082V1.19641C0.000337601 0.811065 0.378155 0.5 0.846199 0.5H7.46078C7.92882 0.5 8.30664 0.811065 8.30664 1.19641C8.30664 1.58176 7.92882 1.89283 7.46078 1.89283H1.68638V17.1071H7.46078C7.92882 17.1071 8.30664 17.4182 8.30664 17.8035C8.30664 18.1889 7.92882 18.4999 7.46078 18.4999H0.840425C0.378012 18.5046 0.000337601 18.1889 0.000337601 17.8082Z" fill="#666F8D"/>
<path d="M18 9.50393C18 9.69892 17.9041 9.88464 17.7293 10.0146L13.156 13.5061C12.9925 13.6314 12.7895 13.6918 12.5808 13.6918C11.8252 13.6964 11.4417 12.9118 12.0056 12.4847L14.9999 10.2004H5.17681C4.70877 10.2004 4.33095 9.88938 4.33095 9.50403C4.33095 9.11868 4.70877 8.80762 5.17681 8.80762H14.9999L12.0056 6.52338C11.6616 6.26338 11.6447 5.82233 11.9605 5.53913C12.2763 5.25592 12.812 5.24199 13.156 5.50199L17.7293 8.99345C17.9041 9.12345 18 9.30893 18 9.50393Z" fill="#666F8D"/>
</svg>
