<svg width="17" height="17" viewBox="0 0 17 17" fill="none" xmlns="http://www.w3.org/2000/svg">
<path d="M6.8916 8.5H15.4462" stroke="#666F8D" stroke-width="1.4" stroke-linecap="round" stroke-linejoin="round"/>
<path d="M13.3076 6.35938L15.4459 8.49763L13.3076 10.6359" stroke="#666F8D" stroke-width="1.4" stroke-linecap="round" stroke-linejoin="round"/>
<path d="M12.1239 2.87227C11.0849 2.11346 9.85617 1.6571 8.57376 1.55377C7.29136 1.45043 6.00538 1.70415 4.85832 2.2868C3.71126 2.86946 2.7479 3.75831 2.075 4.85487C1.40209 5.95142 1.0459 7.21287 1.0459 8.49943C1.0459 9.78599 1.40209 11.0474 2.075 12.144C2.7479 13.2405 3.71126 14.1294 4.85832 14.7121C6.00538 15.2947 7.29136 15.5484 8.57376 15.4451C9.85617 15.3418 11.0849 14.8854 12.1239 14.1266" stroke="#666F8D" stroke-width="1.4" stroke-linecap="round" stroke-linejoin="round"/>
</svg>
