<svg width="16" height="16" viewBox="0 0 16 16" fill="none" xmlns="http://www.w3.org/2000/svg">
<path d="M12.5382 3.0454C12.6073 3.08023 12.6634 3.13631 12.6982 3.2054L13.0414 3.89443C13.0764 3.96516 13.1305 4.0247 13.1975 4.06633C13.2646 4.10796 13.3419 4.13002 13.4208 4.13002C13.4997 4.13002 13.577 4.10796 13.6441 4.06633C13.7111 4.0247 13.7652 3.96516 13.8001 3.89443L14.1434 3.2054C14.1782 3.13631 14.2343 3.08023 14.3034 3.0454L14.9924 2.69959C15.0628 2.66494 15.1221 2.61129 15.1636 2.54471C15.2051 2.47813 15.2271 2.40127 15.2272 2.32282C15.2282 2.2438 15.2066 2.16614 15.165 2.09895C15.1234 2.03175 15.0635 1.97782 14.9924 1.94347L14.3034 1.60024C14.2343 1.56541 14.1782 1.50933 14.1434 1.44024L13.8001 0.751207C13.7652 0.68048 13.7111 0.62094 13.6441 0.579312C13.577 0.537684 13.4997 0.515625 13.4208 0.515625C13.3419 0.515625 13.2646 0.537684 13.1975 0.579312C13.1305 0.62094 13.0764 0.68048 13.0414 0.751207L12.6982 1.44024C12.6634 1.50933 12.6073 1.56541 12.5382 1.60024L11.8492 1.94605C11.7792 1.98129 11.7203 2.03531 11.6791 2.10206C11.638 2.16882 11.6162 2.24569 11.6162 2.32411C11.6162 2.40253 11.638 2.4794 11.6791 2.54616C11.7203 2.61291 11.7792 2.66693 11.8492 2.70218L12.5382 3.0454Z" fill="black"/>
<path d="M15.4978 6.15417C15.3948 6.10555 15.2814 6.08295 15.1675 6.08835C15.0537 6.09374 14.9429 6.12698 14.845 6.18514L14.7882 6.21869C14.6408 6.30624 14.5236 6.43661 14.4521 6.59243C14.3807 6.74825 14.3584 6.92213 14.3882 7.09095C14.5267 8.08017 14.4384 9.08794 14.1301 10.038C13.6777 11.3992 12.7846 12.5708 11.5919 13.3676C10.3993 14.1644 8.97506 14.5411 7.54441 14.438C6.79984 14.4048 6.06846 14.2296 5.38961 13.9219C5.10985 13.7868 4.80583 13.7092 4.49555 13.6937C4.18527 13.6782 3.87502 13.7251 3.58318 13.8316L1.89031 14.4458C1.84422 14.4624 1.79434 14.4656 1.74652 14.4549C1.6987 14.4442 1.65491 14.4202 1.62026 14.3855C1.58561 14.3509 1.56155 14.3071 1.55087 14.2592C1.5402 14.2114 1.54336 14.1616 1.55999 14.1155L2.17417 12.4226C2.28257 12.1248 2.33019 11.8083 2.31423 11.4919C2.29828 11.1754 2.21906 10.8653 2.08127 10.58C1.71765 9.76894 1.53619 8.88806 1.54967 7.99933C1.54967 6.28826 2.22938 4.64727 3.43927 3.43735C4.64917 2.22744 6.29013 1.54772 8.00118 1.54772C8.19989 1.54772 8.3986 1.54772 8.5973 1.57611C8.76304 1.59571 8.93084 1.56512 9.07899 1.48828C9.22714 1.41145 9.34881 1.29191 9.42826 1.14514L9.45665 1.08578C9.50349 0.995736 9.53112 0.89694 9.53778 0.795655C9.54445 0.69437 9.53 0.592806 9.49535 0.497397C9.45046 0.378018 9.37343 0.273377 9.27278 0.195043C9.17214 0.116708 9.05179 0.0677311 8.92504 0.0535258C7.80412 -0.0767961 6.66831 0.0315076 5.59222 0.371322C4.51613 0.711137 3.52411 1.27477 2.68131 2.02521C1.83852 2.77564 1.16402 3.6959 0.702127 4.72552C0.240234 5.75515 0.00139625 6.87085 0.00130196 7.99933C-0.0210385 9.20067 0.244414 10.3899 0.775484 11.4677L0.827096 11.5684L0.130332 13.5219C0.0331589 13.7804 -0.00566385 14.0572 0.0166427 14.3325C0.0389493 14.6078 0.121833 14.8747 0.259363 15.1142C0.474479 15.4763 0.809374 15.7519 1.20614 15.8932C1.60291 16.0346 2.0366 16.0329 2.43223 15.8884L4.43995 15.158L4.54059 15.2097C5.61475 15.7448 6.80122 16.0155 8.00118 15.9993C9.16081 15.9992 10.3065 15.7469 11.359 15.26C12.4115 14.7731 13.3455 14.0632 14.0964 13.1795C14.8473 12.2958 15.3971 11.2595 15.7077 10.1422C16.0183 9.02491 16.0823 7.85347 15.8953 6.70901C15.8788 6.5913 15.834 6.47933 15.7648 6.3827C15.6956 6.28607 15.604 6.20766 15.4978 6.15417Z" fill="black"/>
</svg>
