<svg width="35" height="23" viewBox="0 0 35 23" fill="none" xmlns="http://www.w3.org/2000/svg">
<path d="M19.6307 20.0572C19.6307 20.2377 19.4356 20.3842 19.1966 20.3842H7.55762V2.61644H19.197C19.436 2.61644 19.6311 2.7632 19.6311 2.94338V8.00289H23.1007V2.94307C23.1007 1.32014 21.3497 0 19.197 0H4.01495C1.86233 0 0.111328 1.32014 0.111328 2.94307V20.0569C0.111328 21.6799 1.86233 23 4.01495 23H19.197C21.3497 23 23.1007 21.6799 23.1007 20.0569V14.9977H19.6311L19.6307 20.0572ZM26.9103 5.87376L24.4566 7.72363L27.7299 10.1924H9.79771V12.8085H27.7316L24.4566 15.2773L26.9103 17.1272L34.3734 11.5005L26.9103 5.87376Z" fill="#868687"/>
</svg>
