<svg width="45" height="45" viewBox="0 0 45 45" fill="none" xmlns="http://www.w3.org/2000/svg">
<circle cx="22.5" cy="22.5" r="22.5" fill="white"/>
<path d="M26.2551 31.6564C26.1268 31.6564 25.9868 31.6215 25.8702 31.5631C25.4385 31.3415 25.2635 30.8165 25.4735 30.3848L27.9701 25.4031C28.1218 25.1114 28.4251 24.9248 28.7518 24.9248C29.0785 24.9248 29.3818 25.1115 29.5335 25.4148L32.0301 30.3965C32.2518 30.8281 32.0768 31.3531 31.6335 31.5747C31.2018 31.7964 30.6768 31.6215 30.4551 31.1781L28.7518 27.7598L27.0485 31.1781C26.8851 31.4815 26.5701 31.6564 26.2551 31.6564Z" fill="#5969D4"/>
<path d="M30.7937 30.77H26.687C26.2087 30.77 25.812 30.3734 25.812 29.895C25.812 29.4167 26.2087 29.02 26.687 29.02H30.7937C31.272 29.02 31.6687 29.4167 31.6687 29.895C31.6687 30.3734 31.2837 30.77 30.7937 30.77Z" fill="#5969D4"/>
<path d="M28.7397 35.5418C24.9947 35.5418 21.938 32.4968 21.938 28.7401C21.938 24.9834 24.983 21.9385 28.7397 21.9385C32.4847 21.9385 35.5413 24.9834 35.5413 28.7401C35.5413 32.4968 32.4963 35.5418 28.7397 35.5418ZM28.7397 23.7001C25.9513 23.7001 23.688 25.9634 23.688 28.7518C23.688 31.5401 25.9513 33.8035 28.7397 33.8035C31.5163 33.8035 33.7913 31.5401 33.7913 28.7518C33.7913 25.9634 31.528 23.7001 28.7397 23.7001Z" fill="#5969D4"/>
<path d="M14.6702 23.8168C13.3752 23.8168 12.3485 23.4551 11.6252 22.7551C10.8552 22.0084 10.4585 20.8768 10.4585 19.4184V14.8451C10.4585 12.0101 12.0218 10.4468 14.8568 10.4468H19.4302C20.8885 10.4468 22.0085 10.8318 22.7668 11.6134C23.5018 12.3718 23.8635 13.4685 23.8285 14.8685V19.4184C23.8635 20.8418 23.5018 21.9618 22.7435 22.7201C21.9852 23.4785 20.8652 23.8285 19.4185 23.8051H14.8685C14.7868 23.8168 14.7285 23.8168 14.6702 23.8168ZM14.8568 12.2085C12.9785 12.2085 12.2085 12.9785 12.2085 14.8568V19.4301C12.2085 20.3985 12.4185 21.0984 12.8385 21.5068C13.2468 21.9034 13.9002 22.0785 14.8218 22.0668H19.4185C20.3985 22.0901 21.0752 21.8918 21.4835 21.4835C21.8918 21.0751 22.0785 20.3868 22.0552 19.4418V14.8451C22.0785 13.9118 21.8918 13.2468 21.4952 12.8384C21.0868 12.4184 20.3868 12.2085 19.4185 12.2085H14.8568Z" fill="#5969D4"/>
<path d="M19.4998 16.6997H14.7632C14.2849 16.6997 13.8882 16.303 13.8882 15.8247C13.8882 15.3464 14.2849 14.9497 14.7632 14.9497H19.4998C19.9782 14.9497 20.3748 15.3464 20.3748 15.8247C20.3748 16.303 19.9898 16.6997 19.4998 16.6997Z" fill="#5969D4"/>
<path d="M17.1436 16.7001C16.6652 16.7001 16.2686 16.3034 16.2686 15.8251V15.0317C16.2686 14.5534 16.6652 14.1567 17.1436 14.1567C17.6219 14.1567 18.0186 14.5534 18.0186 15.0317V15.8251C18.0186 16.3034 17.6219 16.7001 17.1436 16.7001Z" fill="#5969D4"/>
<path d="M14.7632 20.3868C14.2849 20.3868 13.8882 19.9901 13.8882 19.5118C13.8882 19.0335 14.2849 18.6368 14.7632 18.6368C16.2448 18.6368 17.4465 17.3768 17.4465 15.8135C17.4465 15.3351 17.8432 14.9385 18.3215 14.9385C18.7999 14.9385 19.1965 15.3351 19.1965 15.8135C19.1965 18.3335 17.2132 20.3868 14.7632 20.3868Z" fill="#5969D4"/>
<path d="M19.5117 20.3867C18.4267 20.3867 17.3883 19.8384 16.6533 18.8701C16.3617 18.4851 16.4434 17.9367 16.8284 17.645C17.2134 17.3534 17.7617 17.4351 18.0533 17.8201C18.45 18.3567 18.975 18.6484 19.5117 18.6484C19.99 18.6484 20.3867 19.0451 20.3867 19.5234C20.3867 20.0018 19.99 20.3867 19.5117 20.3867Z" fill="#5969D4"/>
<path d="M19.5002 35.5417C14.5185 35.5417 10.4585 31.4817 10.4585 26.5C10.4585 26.0217 10.8552 25.625 11.3335 25.625C11.8118 25.625 12.2085 26.0217 12.2085 26.5C12.2085 29.9533 14.6118 32.8467 17.8435 33.605L17.5285 33.08C17.2835 32.66 17.4118 32.1233 17.8318 31.8783C18.2402 31.6333 18.7885 31.7617 19.0335 32.1817L20.2585 34.2233C20.4218 34.4917 20.4218 34.83 20.2702 35.0983C20.1068 35.3667 19.8152 35.5417 19.5002 35.5417Z" fill="#5969D4"/>
<path d="M34.6667 20.3752C34.1883 20.3752 33.7917 19.9785 33.7917 19.5002C33.7917 16.0468 31.3883 13.1535 28.1567 12.3951L28.4717 12.9201C28.7167 13.3401 28.5883 13.8768 28.1683 14.1218C27.76 14.3668 27.2117 14.2385 26.9667 13.8185L25.7417 11.7768C25.5783 11.5085 25.5783 11.1702 25.73 10.9018C25.8817 10.6218 26.1733 10.4585 26.4883 10.4585C31.47 10.4585 35.53 14.5185 35.53 19.5002C35.5417 19.9785 35.145 20.3752 34.6667 20.3752Z" fill="#5969D4"/>
</svg>
