<svg width="20" height="20" viewBox="0 0 20 20" fill="none" xmlns="http://www.w3.org/2000/svg">
<path d="M0.000112722 16.4496C0.000112722 18.1983 1.41058 19.6087 3.15928 19.6087H16.8408C18.5896 19.6087 20 18.1983 20 16.4496V13.2616C20 12.5564 19.4358 11.9922 18.7306 11.9922C18.0253 11.9922 17.4612 12.5564 17.4612 13.2616V16.4496C17.4612 16.7878 17.1791 17.0699 16.8408 17.0699H3.15922C2.82094 17.0699 2.53884 16.7878 2.53884 16.4496V13.2616C2.53884 12.5564 1.97466 11.9922 1.26942 11.9922C0.564187 11.9922 0 12.5564 0 13.2616L0.000112722 16.4496Z" fill="#626060"/>
<path d="M9.73224 0C9.02701 0 8.46282 0.564188 8.46282 1.26942V10.3252L5.41593 7.2783C4.90793 6.77031 4.11784 6.77031 3.61098 7.2783C3.10298 7.7863 3.10298 8.57639 3.61098 9.08325L8.40657 13.8788C8.74486 14.2458 9.22419 14.4144 9.73219 14.4144C10.2402 14.4144 10.6909 14.2171 11.0578 13.8788L15.8534 9.08325C16.3614 8.57526 16.3614 7.78517 15.8534 7.2783C15.3454 6.77031 14.5553 6.77031 14.0484 7.2783L11.0016 10.3252V1.26942C11.0016 0.564188 10.4375 0 9.73224 0Z" fill="#626060"/>
</svg>
