<svg width="36" height="50" viewBox="0 0 36 50" fill="none" xmlns="http://www.w3.org/2000/svg">
<path d="M1.1926 0C0.536924 0 0 0.597128 0 1.32899V48.2098C0 48.9416 0.536924 49.5388 1.1926 49.5388H34.8074C35.4639 49.5388 36 48.9412 36 48.2098V16.0821C36 15.3503 35.621 14.3297 35.1578 13.8128L23.6091 0.939821C23.145 0.422027 22.2291 0 21.5734 0H1.1926Z" fill="#808080"/>
<path d="M2.18716 0.882812C1.53064 0.882812 0.994141 1.48182 0.994141 2.2118V47.765C0.994141 48.4955 1.53064 49.0945 2.18716 49.0945H34.4114C35.0663 49.0945 35.604 48.4959 35.604 47.765V16.3007C35.604 15.5702 35.2242 14.5492 34.7605 14.0309L23.809 1.8231C23.3449 1.30672 22.429 0.882812 21.7729 0.882812H2.18716Z" fill="url(#paint0_linear_1358_28197)"/>
<path d="M23.6016 4.41406V11.0576C23.6016 12.4575 24.6215 13.5926 25.8743 13.5926H32.069L23.6016 4.41406Z" fill="url(#paint1_linear_1358_28197)"/>
<path d="M23.1355 12.613L22.5872 1.67969L21.7441 14.164C21.7441 14.8945 22.2806 15.493 22.9372 15.493H33.7864L24.3281 13.942C23.672 13.9424 23.1355 13.3434 23.1355 12.613Z" fill="url(#paint2_radial_1358_28197)"/>
<path d="M0.994141 49.0944H35.6036C35.6036 49.0944 22.2382 45.7707 0.994141 49.0944Z" fill="url(#paint3_linear_1358_28197)"/>
<path d="M35.6036 36.2799C35.6036 36.916 35.1223 37.4366 34.5336 37.4366H2.06377C1.47505 37.4366 0.994141 36.9164 0.994141 36.2799V22.789C0.994141 22.153 1.47547 21.6328 2.06377 21.6328H34.5336C35.1223 21.6328 35.6036 22.153 35.6036 22.789V36.2799Z" fill="#D55A67"/>
<path d="M24.0537 33.2635L21.0566 24.4141H22.1873L24.6395 31.6524L27.0129 24.4141H27.9954L25.1154 33.2635H24.0537Z" fill="white"/>
<path d="M14.4155 33.0224C13.6335 33.4759 12.7799 33.7021 11.8551 33.7021C10.6225 33.7021 9.67076 33.2998 8.9995 32.4938C8.3274 31.6887 7.99219 30.5442 7.99219 29.0603C7.99219 27.5811 8.33414 26.4356 9.01845 25.624C9.70192 24.8123 10.6675 24.4062 11.9145 24.4062C12.6215 24.4062 13.4524 24.5372 14.4062 24.7992V25.9784C13.3193 25.5531 12.4813 25.3409 11.8913 25.3409C11.0297 25.3409 10.3631 25.6662 9.89142 26.3169C9.41935 26.9675 9.18395 27.8857 9.18395 29.0711C9.18395 30.2048 9.43578 31.0972 9.93985 31.7483C10.4435 32.399 11.1333 32.7248 12.0088 32.7248C12.7559 32.7248 13.5581 32.4661 14.4159 31.9492V33.0224H14.4155Z" fill="white"/>
<path d="M15.5605 33.3087V32.0657C16.4542 32.5332 17.1907 32.767 17.7697 32.767C18.2089 32.767 18.5644 32.636 18.8339 32.3746C19.1038 32.1131 19.2386 31.7723 19.2386 31.353C19.2386 31.0057 19.1506 30.7099 18.9737 30.4663C18.7968 30.2222 18.4713 29.9513 17.9963 29.6523L17.4501 29.2997C16.775 28.8688 16.2996 28.4632 16.0229 28.082C15.7458 27.7013 15.6077 27.2595 15.6077 26.7572C15.6077 26.0714 15.8292 25.5076 16.2714 25.0672C16.7144 24.6269 17.2779 24.4062 17.9634 24.4062C18.5741 24.4062 19.2184 24.5199 19.8964 24.7466V25.8939C19.0613 25.5259 18.438 25.3414 18.0283 25.3414C17.6388 25.3414 17.3174 25.4573 17.0644 25.6888C16.8104 25.9207 16.6845 26.2127 16.6845 26.5638C16.6845 26.8596 16.7772 27.1215 16.9633 27.3487C17.149 27.5764 17.488 27.8477 17.9807 28.1627L18.5488 28.5219C19.2344 28.9566 19.7136 29.3673 19.9844 29.7541C20.256 30.141 20.3916 30.6052 20.3916 31.1479C20.3916 31.9178 20.1381 32.5356 19.6306 33.0022C19.1223 33.4688 18.4486 33.7017 17.6084 33.7017C17.0732 33.7017 16.3897 33.5702 15.5605 33.3087Z" fill="white"/>
<defs>
<linearGradient id="paint0_linear_1358_28197" x1="18.2989" y1="1.08948" x2="18.2989" y2="49.3008" gradientUnits="userSpaceOnUse">
<stop stop-color="white"/>
<stop offset="0.4837" stop-color="#FDFDFD"/>
<stop offset="0.7117" stop-color="#F5F6F6"/>
<stop offset="0.8856" stop-color="#E9E9EA"/>
<stop offset="1" stop-color="#DBDCDD"/>
</linearGradient>
<linearGradient id="paint1_linear_1358_28197" x1="27.8939" y1="8.93838" x2="23.6866" y2="12.7126" gradientUnits="userSpaceOnUse">
<stop stop-color="white"/>
<stop offset="0.3511" stop-color="#F2F3F3"/>
<stop offset="0.998" stop-color="#D0D2D3"/>
<stop offset="1" stop-color="#D0D2D3"/>
</linearGradient>
<radialGradient id="paint2_radial_1358_28197" cx="0" cy="0" r="1" gradientUnits="userSpaceOnUse" gradientTransform="translate(28.0222 8.37422) scale(6.93792 7.73407)">
<stop stop-color="white"/>
<stop offset="0.486" stop-color="#FDFDFD"/>
<stop offset="0.661" stop-color="#F6F7F7"/>
<stop offset="0.7858" stop-color="#EBEBEC"/>
<stop offset="0.8866" stop-color="#DADBDC"/>
<stop offset="0.972" stop-color="#C4C6C7"/>
<stop offset="1" stop-color="#BBBDBF"/>
</radialGradient>
<linearGradient id="paint3_linear_1358_28197" x1="9.64652" y1="58.7395" x2="30.0544" y2="40.4324" gradientUnits="userSpaceOnUse">
<stop stop-color="#D0D2D3"/>
<stop offset="0.4719" stop-color="white"/>
<stop offset="0.6573" stop-color="#F2F3F3"/>
<stop offset="0.9989" stop-color="#D0D2D3"/>
<stop offset="1" stop-color="#D0D2D3"/>
</linearGradient>
</defs>
</svg>
