<svg width="16" height="16" viewBox="0 0 16 16" fill="none" xmlns="http://www.w3.org/2000/svg">
<path d="M3.7221 6.58482C4.47927 6.58482 5.20542 6.28404 5.74082 5.74864C6.27622 5.21324 6.57701 4.48708 6.57701 3.72991C6.57701 2.97274 6.27622 2.24658 5.74082 1.71118C5.20542 1.17578 4.47927 0.875 3.7221 0.875C2.96493 0.875 2.23877 1.17578 1.70337 1.71118C1.16797 2.24658 0.867188 2.97274 0.867188 3.72991C0.867188 4.48708 1.16797 5.21324 1.70337 5.74864C2.23877 6.28404 2.96493 6.58482 3.7221 6.58482Z" stroke="#19213D" stroke-width="0.96" stroke-linecap="round" stroke-linejoin="round"/>
<path d="M12.2771 6.58484C13.0343 6.58484 13.7604 6.28406 14.2958 5.74866C14.8312 5.21326 15.132 4.4871 15.132 3.72993C15.132 2.97276 14.8312 2.2466 14.2958 1.7112C13.7604 1.1758 13.0343 0.87502 12.2771 0.87502C11.5199 0.87502 10.7938 1.1758 10.2584 1.7112C9.72296 2.2466 9.42217 2.97276 9.42217 3.72993C9.42217 4.4871 9.72296 5.21326 10.2584 5.74866C10.7938 6.28406 11.5199 6.58484 12.2771 6.58484Z" stroke="#19213D" stroke-width="0.96" stroke-linecap="round" stroke-linejoin="round"/>
<path d="M3.7221 15.124C4.09701 15.124 4.46825 15.0502 4.81462 14.9067C5.161 14.7632 5.47572 14.553 5.74082 14.2878C6.00593 14.0227 6.21622 13.708 6.35969 13.3616C6.50316 13.0153 6.57701 12.644 6.57701 12.2691C6.57701 11.8942 6.50316 11.523 6.35969 11.1766C6.21622 10.8302 6.00593 10.5155 5.74082 10.2504C5.47572 9.98529 5.161 9.775 4.81462 9.63153C4.46825 9.48806 4.09701 9.41421 3.7221 9.41421C2.96493 9.41421 2.23877 9.715 1.70337 10.2504C1.16797 10.7858 0.867188 11.512 0.867188 12.2691C0.867188 13.0263 1.16797 13.7524 1.70337 14.2878C2.23877 14.8232 2.96493 15.124 3.7221 15.124Z" stroke="#19213D" stroke-width="0.96" stroke-linecap="round" stroke-linejoin="round"/>
<path d="M12.2771 15.124C12.652 15.124 13.0232 15.0502 13.3696 14.9067C13.716 14.7632 14.0307 14.553 14.2958 14.2878C14.5609 14.0227 14.7712 13.708 14.9147 13.3616C15.0581 13.0153 15.132 12.644 15.132 12.2691C15.132 11.8942 15.0581 11.523 14.9147 11.1766C14.7712 10.8302 14.5609 10.5155 14.2958 10.2504C14.0307 9.98529 13.716 9.775 13.3696 9.63153C13.0232 9.48806 12.652 9.41421 12.2771 9.41421C11.5199 9.41421 10.7938 9.715 10.2584 10.2504C9.72296 10.7858 9.42217 11.512 9.42217 12.2691C9.42217 13.0263 9.72296 13.7524 10.2584 14.2878C10.7938 14.8232 11.5199 15.124 12.2771 15.124Z" stroke="#19213D" stroke-width="0.96" stroke-linecap="round" stroke-linejoin="round"/>
</svg>
