<svg width="32" height="30" viewBox="0 0 32 30" fill="none" xmlns="http://www.w3.org/2000/svg">
<path fill-rule="evenodd" clip-rule="evenodd" d="M1.52793 7.29391C1.13444 7.14833 0.725547 7.0338 0.304163 6.95323C0.273225 6.94734 0.24222 6.94161 0.211145 6.93605C-0.0703818 6.88578 -0.0703818 6.48163 0.211145 6.43136C0.24222 6.42579 0.273225 6.42007 0.304163 6.41417C0.725547 6.3336 1.13444 6.21907 1.52793 6.07349C1.7634 5.98636 1.99337 5.88815 2.21718 5.77939C3.76712 5.02642 5.02235 3.77018 5.77475 2.21897C5.88338 1.99498 5.98156 1.76484 6.06858 1.52916C6.21404 1.13536 6.32847 0.726134 6.40898 0.304409C6.41487 0.273446 6.42059 0.242416 6.42615 0.211316C6.47638 -0.0704388 6.8802 -0.0704388 6.93043 0.211316C6.93599 0.242416 6.94171 0.273446 6.9476 0.304409C7.02811 0.726134 7.14255 1.13536 7.28801 1.52916C7.37507 1.76483 7.4732 1.99498 7.58188 2.21897C8.33423 3.77018 9.58946 5.02642 11.1394 5.77939C11.3632 5.88815 11.5932 5.98636 11.8287 6.07349C12.2221 6.21907 12.631 6.3336 13.0524 6.41417C13.0834 6.42007 13.1144 6.42579 13.1454 6.43136C13.427 6.48163 13.427 6.88578 13.1454 6.93605C13.1144 6.94161 13.0834 6.94734 13.0524 6.95323C12.631 7.0338 12.2221 7.14833 11.8287 7.29391C11.5932 7.38104 11.3632 7.47926 11.1394 7.58802C9.58946 8.34098 8.33423 9.59723 7.58188 11.1484C7.4732 11.3724 7.37507 11.6026 7.28801 11.8382C7.14255 12.232 7.02811 12.6413 6.9476 13.063C6.94171 13.0939 6.93599 13.125 6.93043 13.1561C6.8802 13.4379 6.47638 13.4379 6.42615 13.1561C6.42059 13.125 6.41487 13.0939 6.40898 13.063C6.32847 12.6413 6.21404 12.232 6.06858 11.8382C5.98156 11.6026 5.88338 11.3724 5.77475 11.1484C5.02235 9.59723 3.76712 8.34098 2.21718 7.58802C1.99337 7.47926 1.76341 7.38104 1.52793 7.29391ZM3.98019 6.6837C5.05487 7.38839 5.97417 8.30844 6.67829 9.38398C7.38241 8.30844 8.30171 7.38839 9.37643 6.6837C8.30171 5.97901 7.38241 5.05897 6.67829 3.98342C5.97417 5.05897 5.05487 5.97901 3.98019 6.6837ZM10.9352 17.3059C10.66 17.2317 10.381 17.1665 10.0985 17.1108C10.0543 17.1021 10.0101 17.0937 9.96578 17.0854L9.95235 17.0829L9.93418 17.0796C9.90622 17.0745 9.87553 17.069 9.81414 17.058L9.7927 17.0542C9.34246 16.9689 9.34246 16.3237 9.7927 16.2384L9.81414 16.2346C9.87553 16.2236 9.90622 16.2181 9.93418 16.213L9.95235 16.2097L9.96578 16.2072C10.0101 16.1989 10.0543 16.1905 10.0984 16.1818C10.381 16.1261 10.66 16.061 10.9352 15.9867C11.1703 15.9234 11.4026 15.8533 11.6318 15.7768C15.3414 14.5393 18.2605 11.6179 19.497 7.90528C19.5734 7.67581 19.6434 7.44335 19.7068 7.20807C19.7809 6.93268 19.846 6.6534 19.9017 6.37063C19.9103 6.32646 19.9188 6.28221 19.9271 6.23787L19.9295 6.22442L19.9329 6.20624C19.9379 6.1786 19.9434 6.14825 19.9541 6.08819L19.9544 6.08611L19.9583 6.06465C20.0434 5.61405 20.6882 5.61405 20.7734 6.06465L20.7772 6.08611C20.7882 6.14755 20.7936 6.17826 20.7987 6.20624L20.8021 6.22442L20.8046 6.23787C20.8128 6.28221 20.8213 6.32646 20.8299 6.37063C20.8856 6.65344 20.9507 6.93268 21.0248 7.20807C21.0882 7.44335 21.1582 7.67581 21.2346 7.90528C22.4712 11.6179 25.3902 14.5393 29.0998 15.7768C29.3291 15.8533 29.5613 15.9234 29.7964 15.9867C30.0716 16.061 30.3506 16.1261 30.6332 16.1818C30.6773 16.1905 30.7215 16.1989 30.7658 16.2072L30.7793 16.2097L30.7974 16.213C30.8254 16.2181 30.8561 16.2236 30.9175 16.2346L30.9389 16.2384C31.3892 16.3237 31.3892 16.9689 30.9389 17.0542L30.9175 17.058L30.8525 17.0696L30.7974 17.0796L30.7793 17.0829L30.7658 17.0854C30.7215 17.0937 30.6773 17.1021 30.6332 17.1108C30.3506 17.1665 30.0716 17.2317 29.7964 17.3059C29.5613 17.3693 29.3291 17.4393 29.0998 17.5158C25.3902 18.7534 22.4712 21.6748 21.2346 25.3873C21.1582 25.6168 21.0882 25.8493 21.0248 26.0846C20.9507 26.3599 20.8856 26.6392 20.8299 26.922C20.8213 26.9662 20.8128 27.0104 20.8046 27.0547L20.8021 27.0682L20.7987 27.0864L20.7913 27.1273L20.7776 27.2041L20.7734 27.228C20.6882 27.6786 20.0434 27.6786 19.9583 27.228L19.9544 27.2065C19.9435 27.1452 19.938 27.1143 19.9329 27.0864L19.9295 27.0682L19.9271 27.0547C19.9188 27.0104 19.9103 26.9662 19.9017 26.922C19.846 26.6392 19.7809 26.3599 19.7068 26.0846C19.6434 25.8493 19.5734 25.6168 19.497 25.3873C18.2605 21.6748 15.3414 18.7534 11.6318 17.5158C11.4026 17.4393 11.1703 17.3693 10.9352 17.3059ZM13.8819 16.6463C16.7024 18.025 18.9882 20.3126 20.3658 23.1355C21.7434 20.3126 24.0292 18.025 26.8497 16.6463C24.0292 15.2676 21.7434 12.98 20.3658 10.1571C18.9882 12.98 16.7024 15.2676 13.8819 16.6463ZM4.72641 25.9489C5.19963 26.0394 5.64787 26.1977 6.06082 26.4134C6.24452 26.5094 6.42122 26.6167 6.58999 26.7345C7.0603 27.0627 7.46922 27.472 7.79714 27.9426C7.91481 28.1116 8.02207 28.2884 8.11793 28.4722C8.33353 28.8855 8.49168 29.3342 8.58206 29.8078C8.58579 29.8273 8.58944 29.8469 8.59293 29.8665C8.62466 30.0445 8.8797 30.0445 8.91143 29.8665C8.91492 29.8469 8.91852 29.8273 8.92226 29.8078C9.01268 29.3342 9.17083 28.8855 9.38639 28.4722C9.48228 28.2884 9.58954 28.1116 9.70722 27.9426C10.0351 27.472 10.4441 27.0627 10.9144 26.7345C11.0831 26.6167 11.2598 26.5094 11.4435 26.4134C11.8565 26.1977 12.3047 26.0394 12.7779 25.9489C12.7975 25.9452 12.8171 25.9416 12.8367 25.9381C13.0145 25.9064 13.0145 25.6511 12.8367 25.6193C12.8171 25.6158 12.7975 25.6122 12.7779 25.6085C12.3047 25.518 11.8565 25.3597 11.4435 25.144C11.2598 25.048 11.0831 24.9407 10.9144 24.8229C10.4441 24.4947 10.0351 24.0854 9.70722 23.6148C9.58954 23.4458 9.48228 23.269 9.38639 23.0852C9.17083 22.6719 9.01268 22.2233 8.92226 21.7497C8.91852 21.7301 8.91492 21.7105 8.91143 21.6909C8.8797 21.5129 8.62466 21.5129 8.59293 21.6909C8.58944 21.7105 8.58579 21.7301 8.58206 21.7497C8.49168 22.2233 8.33353 22.6719 8.11793 23.0852C8.02207 23.269 7.91481 23.4458 7.79714 23.6148C7.46922 24.0854 7.0603 24.4947 6.58999 24.8229C6.42122 24.9407 6.24452 25.048 6.06082 25.144C5.64787 25.3597 5.19963 25.518 4.72641 25.6085C4.70688 25.6122 4.6873 25.6158 4.66764 25.6193C4.48987 25.6511 4.48987 25.9064 4.66764 25.9381C4.6873 25.9416 4.70688 25.9452 4.72641 25.9489ZM8.75216 26.4692C8.53975 26.2221 8.3091 25.9913 8.06222 25.7787C8.3091 25.5661 8.53975 25.3353 8.75216 25.0882C8.9646 25.3353 9.19526 25.5661 9.44209 25.7787C9.19526 25.9913 8.9646 26.2221 8.75216 26.4692Z" fill="url(#paint0_linear_637_13679)"/>
<defs>
<linearGradient id="paint0_linear_637_13679" x1="15.6383" y1="0" x2="15.6383" y2="30" gradientUnits="userSpaceOnUse">
<stop stop-color="#F5C679"/>
<stop offset="0.47" stop-color="#DA3131"/>
<stop offset="0.93" stop-color="#4B6CFF"/>
</linearGradient>
</defs>
</svg>
