<svg width="16" height="18" viewBox="0 0 16 18" fill="none" xmlns="http://www.w3.org/2000/svg">
<path d="M5.98263 3.57592L6.47713 2.30341C6.56106 2.08876 6.70804 1.90457 6.89871 1.77511C7.08937 1.64564 7.31479 1.57697 7.54526 1.57814H8.47162C8.70124 1.57797 8.92557 1.64711 9.11526 1.77651C9.30496 1.90591 9.45117 2.08955 9.53479 2.30341L10.0293 3.57592L11.6776 4.53195L13.0293 4.32756C13.2553 4.2942 13.4861 4.32947 13.6918 4.42881C13.8975 4.52814 14.0687 4.68697 14.1831 4.8847L14.6479 5.68908C14.7624 5.88789 14.8143 6.11655 14.7969 6.34527C14.7796 6.574 14.6938 6.79221 14.5507 6.97149L13.6985 8.03961V9.95168L14.5507 11.0198C14.6938 11.1991 14.7796 11.4173 14.7969 11.646C14.8143 11.8747 14.7624 12.1034 14.6479 12.3022L14.1831 13.1066C14.0687 13.3043 13.8975 13.4631 13.6918 13.5625C13.4861 13.6618 13.2553 13.6971 13.0293 13.6637L11.6776 13.4593L10.0293 14.4154L9.53479 15.6879C9.45117 15.9017 9.30496 16.0854 9.11526 16.2148C8.92557 16.3442 8.70124 16.4133 8.47162 16.4131H7.54526C7.31563 16.4133 7.0913 16.3442 6.90161 16.2148C6.71192 16.0854 6.5657 15.9017 6.48208 15.6879L5.98758 14.4154L4.33925 13.4593L2.98761 13.6637C2.76161 13.6971 2.5308 13.6618 2.32507 13.5625C2.11935 13.4631 1.94819 13.3043 1.83378 13.1066L1.35246 12.3022C1.23804 12.1034 1.18612 11.8747 1.20347 11.646C1.22081 11.4173 1.30662 11.1991 1.44972 11.0198L2.3019 9.95168V8.03961L1.44972 6.97149C1.30662 6.79221 1.22081 6.574 1.20347 6.34527C1.18612 6.11655 1.23804 5.88789 1.35246 5.68908L1.81729 4.8847C1.93171 4.68697 2.10287 4.52814 2.30859 4.42881C2.51431 4.32947 2.74513 4.2942 2.97113 4.32756L4.32276 4.53195L5.98263 3.57592ZM5.94802 8.99564C5.94802 9.5421 6.1651 10.0662 6.5515 10.4526C6.9379 10.839 7.46198 11.0561 8.00844 11.0561C8.55489 11.0561 9.07897 10.839 9.46537 10.4526C9.85178 10.0662 10.0689 9.5421 10.0689 8.99564C10.0689 8.44919 9.85178 7.92511 9.46537 7.53871C9.07897 7.1523 8.55489 6.93523 8.00844 6.93523C7.46198 6.93523 6.9379 7.1523 6.5515 7.53871C6.1651 7.92511 5.94802 8.44919 5.94802 8.99564Z" stroke="#666F8D" stroke-width="1.3" stroke-linecap="round"/>
</svg>
