<svg width="20" height="27" viewBox="0 0 20 27" fill="none" xmlns="http://www.w3.org/2000/svg">
<path d="M19 16.2692V13.0385C19 10.7444 17.1868 8.88462 14.95 8.88462H13.15C12.4044 8.88462 11.8 8.2647 11.8 7.5V5.65385C11.8 3.35974 9.98675 1.5 7.75 1.5H5.5M5.5 17.1923H14.5M5.5 20.8846H10M8.2 1.5H2.35C1.60442 1.5 1 2.11991 1 2.88461V24.1154C1 24.8801 1.60442 25.5 2.35 25.5H17.65C18.3956 25.5 19 24.8801 19 24.1154V12.5769C19 6.45931 14.1647 1.5 8.2 1.5Z" stroke="#666F8D" stroke-width="2" stroke-linecap="round" stroke-linejoin="round"/>
</svg>
