<svg width="46" height="42" viewBox="0 0 46 42" fill="none" xmlns="http://www.w3.org/2000/svg">
<g clip-path="url(#clip0_734_12408)">
<path d="M36.0142 3.12061H15.2646V11.1106H40.4457V7.23402C40.4457 4.96567 38.4577 3.12061 36.0142 3.12061Z" fill="#CED9F9"/>
<path d="M24.2687 12.3403H0V4.92636C0 2.20972 2.38073 0 5.30738 0H13.0669C13.8382 0 14.5812 0.150925 15.2561 0.434509C16.1989 0.828964 17.0088 1.47913 17.5768 2.3286L24.2687 12.3403Z" fill="#1640C1"/>
<path d="M45.2308 13.9999V37.8812C45.2308 40.1525 43.2396 41.9998 40.7926 41.9998H4.43812C1.99113 41.9998 0 40.1525 0 37.8812V9.88037H40.7926C43.2396 9.88037 45.2308 11.7283 45.2308 13.9999Z" fill="#2354E6"/>
<path d="M45.2306 13.9999V37.8812C45.2306 40.1525 43.2395 41.9998 40.7925 41.9998H22.6152V9.88037H40.7925C43.2395 9.88037 45.2306 11.7283 45.2306 13.9999Z" fill="#1849D6"/>
<path d="M34.5133 25.94C34.5133 32.0325 29.1759 36.9889 22.6156 36.9889C16.0552 36.9889 10.7178 32.0325 10.7178 25.94C10.7178 19.8486 16.0552 14.8921 22.6156 14.8921C29.1759 14.8921 34.5133 19.8486 34.5133 25.94Z" fill="#E7ECFC"/>
<path d="M34.513 25.94C34.513 32.0325 29.1756 36.9889 22.6152 36.9889V14.8921C29.1756 14.8921 34.513 19.8486 34.513 25.94Z" fill="#CED9F9"/>
<path d="M26.4503 26.0753C26.2022 26.2704 25.8982 26.3656 25.5969 26.3656C25.2197 26.3656 24.845 26.2173 24.5827 25.9282L23.9405 25.2213V29.8494C23.9405 30.5287 23.347 31.0799 22.6154 31.0799C21.8838 31.0799 21.2903 30.5287 21.2903 29.8494V25.2213L20.6481 25.9282C20.1753 26.4476 19.3399 26.514 18.7805 26.0753C18.2215 25.6373 18.1497 24.8612 18.6214 24.3418L21.2444 21.4543C21.5864 21.0788 22.0853 20.8628 22.6154 20.8628C23.1454 20.8628 23.6444 21.0788 23.9864 21.4543L26.6094 24.3418C27.0811 24.8612 27.0093 25.6373 26.4503 26.0753Z" fill="#6C8DEF"/>
<path d="M26.4501 26.0753C26.202 26.2704 25.898 26.3656 25.5968 26.3656C25.2196 26.3656 24.8448 26.2173 24.5826 25.9282L23.9404 25.2213V29.8494C23.9404 30.5287 23.3468 31.0799 22.6152 31.0799V20.8628C23.1453 20.8628 23.6443 21.0788 23.9863 21.4543L26.6092 24.3418C27.081 24.8612 27.0092 25.6373 26.4501 26.0753Z" fill="#3B67E9"/>
</g>
<defs>
<clipPath id="clip0_734_12408">
<rect width="45.2308" height="42" fill="white"/>
</clipPath>
</defs>
</svg>
